<?xml version="1.0" standalone="no"?>
<!DOCTYPE svg PUBLIC "-//W3C//DTD SVG 20010904//EN"
 "http://www.w3.org/TR/2001/REC-SVG-20010904/DTD/svg10.dtd">
<svg version="1.0" xmlns="http://www.w3.org/2000/svg"
 width="160.000000pt" height="160.000000pt" viewBox="0 0 160.000000 160.000000"
 preserveAspectRatio="xMidYMid meet">
<metadata>
Created by potrace 1.14, written by Peter Selinger 2001-2017
</metadata>
<g transform="translate(0.000000,160.000000) scale(0.100000,-0.100000)"
fill="#000000" stroke="none">
<path d="M718 1495 c-2 -2 -19 -6 -38 -9 -98 -16 -200 -61 -290 -127 -150
-109 -231 -238 -279 -445 -14 -58 -12 -213 2 -231 5 -7 7 -13 4 -13 -3 0 1
-21 9 -47 8 -27 17 -58 19 -69 3 -12 17 -42 31 -67 14 -26 23 -51 19 -57 -4
-6 -1 -9 7 -8 7 2 12 -5 12 -14 -1 -10 2 -16 6 -13 8 5 50 -40 50 -55 0 -6 5
-10 10 -10 6 0 10 -7 10 -16 0 -8 4 -12 10 -9 5 3 10 2 10 -4 0 -5 9 -13 20
-16 11 -3 20 -13 20 -21 0 -8 7 -14 16 -14 10 0 14 -6 11 -14 -4 -10 -1 -13 9
-9 7 3 14 0 14 -6 0 -6 7 -8 17 -4 13 5 15 2 10 -11 -4 -10 -3 -15 3 -11 11 7
90 -32 108 -54 8 -9 11 -10 7 -3 -8 16 -1 15 46 -7 21 -11 36 -14 32 -9 -4 7
-1 8 8 2 16 -10 20 -11 57 -13 21 -1 24 -3 12 -11 -9 -6 -10 -10 -3 -10 6 0
14 4 18 10 3 5 12 7 20 3 8 -3 39 -6 68 -7 41 -1 51 -4 49 -16 -2 -8 0 -11 5
-7 4 5 8 13 8 19 0 6 9 12 20 14 11 2 36 6 55 10 19 4 42 9 51 9 9 1 23 6 30
11 18 11 38 16 66 16 12 0 21 5 20 12 -1 6 8 11 20 11 11 0 25 4 29 8 5 4 0 5
-11 2 -20 -7 -20 -6 -1 9 16 12 22 13 28 3 5 -8 8 -7 8 5 0 10 10 20 25 24 14
3 22 10 19 15 -3 5 -1 9 4 9 4 0 19 10 32 23 14 12 28 21 33 19 5 -1 6 2 3 7
-8 12 18 33 29 23 5 -4 5 -2 2 4 -4 6 7 26 23 43 17 17 28 31 24 31 -3 0 5 15
18 33 13 17 23 37 23 42 1 6 6 9 13 8 7 -2 9 4 5 14 -4 10 -2 14 4 10 6 -4 9
3 7 18 -1 14 2 25 7 25 5 0 9 9 9 21 0 11 3 18 8 16 4 -3 7 5 8 16 3 51 9 87
15 87 10 0 13 146 3 192 -6 34 -16 81 -18 95 -1 7 -5 16 -9 19 -4 4 -7 15 -7
24 0 46 -110 219 -182 286 -93 87 -249 167 -347 177 -15 2 -31 6 -36 9 -10 6
-171 9 -177 3z"/>
<path d="M726 78 c3 -5 10 -6 15 -3 13 9 11 12 -6 12 -8 0 -12 -4 -9 -9z"/>
</g>
</svg>
